<svg id="Слой_1" data-name="Слой 1" xmlns="http://www.w3.org/2000/svg" viewBox="0 0 113.96 113.96"><defs><style>.cls-1{fill:#51808a;}.cls-2{fill:#fff;}</style></defs><title>icon</title><path class="cls-1" d="M740.18,383.79a57,57,0,1,1-57-57A57,57,0,0,1,740.18,383.79Z" transform="translate(-626.22 -326.81)"/><path class="cls-1" d="M713.68,358.65s-5.44-9.76-31.23-4.31c-14.59,4-33,11.19-38.32,17.87-2.77,2.67-5.75,6.68,1.13,9,9.76,2.37,27.33,6.68,50.65-5.85C711.83,364.82,715.12,363.89,713.68,358.65Z" transform="translate(-626.22 -326.81)"/><path class="cls-2" d="M680.75,427l.25-.15c1.37-.76,4.13-2.28,3.18-4.25-.74-1.51-4-.17-5.2,0a25.22,25.22,0,0,1-8,.09,42.63,42.63,0,0,1-12.1-4.11,11.45,11.45,0,0,1-1.8-1.19c-.45-.39-1.28-1.56-1.94-1.47S654,417.39,654,418a5.57,5.57,0,0,0,.56,2.37c.64,1.37,2.21,2.41,3.41,3.26,1.4,1,2.8,2,4.23,2.89,2.78,1.8,5.88,3.83,9.18,4.46a4.36,4.36,0,0,0,2.53-.12A78.68,78.68,0,0,0,680.75,427Z" transform="translate(-626.22 -326.81)"/><path class="cls-2" d="M667.74,437.06a9.15,9.15,0,0,0,3.5-2.43c1.52-1.71-.53-2.23-2.07-2.32a19.79,19.79,0,0,1-7.09-3.09,17.51,17.51,0,0,1-2.43-2c-.67-.66-1.55-1.75-2.54-.89s-.26,2.39.17,3.25a17.83,17.83,0,0,0,6.21,6.44c1,.61,2.59,1.41,3.82,1.19A3.89,3.89,0,0,0,667.74,437.06Z" transform="translate(-626.22 -326.81)"/><path class="cls-2" d="M704.92,359.81c-1.2-1.35-3.63-2.07-5.07-2.4a42.66,42.66,0,0,0-9.35-1c-1.37,0-5.45.35-5.94,2-.58,2,1.93,1.73,3.15,2.27,2.07.93,4,3.4,3.28,5.76-.69,2.18-2.93,3.07-4.75,4.08s-13.88,4.94-14.3,1.59c-.12-1,1.19-2,1.91-2.41,1.21-.67,2.59-1,3.77-1.7,4.11-2.47,6.27-6.37-2.36-6.37a45.54,45.54,0,0,0-15,4.27c-3.05,1.42-7.15,3.17-8.56,6.48-.85,2-.08,4.42,1.11,6.07,1,1.46,2.93,2.06,4.61,2.35a21.89,21.89,0,0,0,5.52.47c13.94-1.32,27.33-5.18,38.67-13.68,1.61-1.21,4.28-4,4.07-6.24A2.65,2.65,0,0,0,704.92,359.81Z" transform="translate(-626.22 -326.81)"/><path class="cls-2" d="M710.05,346.87c-16.34-6.06-31.44-.41-43.66,3.5-11.12,4.29-27,10.8-31.61,23-1.26,3.3-1.59,7.73.17,10.91,1.88,3.4,5.9,5.15,9.29,6.6a47,47,0,0,0,28.49,2.41c1-.22,2.06-.48,3.07-.77l4-1.15c1.91-.56,3.82-1.14,5.69-1.81s3.4-1.28,5.08-2c2.48-1,4.94-2.11,7.41-3.17l1.19-.5a2.16,2.16,0,0,1,1.89-.25,1.59,1.59,0,0,1,1.07,1.32c0,.13.07.27.07.39a2.41,2.41,0,0,1-.18.7,3.31,3.31,0,0,1-1,1.51c-3.29,2.75-18.89,11-31.77,11.51A62.35,62.35,0,0,1,649,396.89c-1.53-.44-4.42-2.42-5.37-.24-.43,1,.53,1.92,1.26,2.48a32.19,32.19,0,0,0,5.1,2.77,51.1,51.1,0,0,0,8.25,3.22,59,59,0,0,0,9.48,1.92,43.91,43.91,0,0,0,18.75-1.94c.75-.24,5.36-2.3,4.82,0-.25,1.09-1.92,2.39-2.73,3a12.06,12.06,0,0,1-2.4,1.53,23.77,23.77,0,0,1-9,2.26c-2.55.12-5.12-.14-7.65-.23a25.25,25.25,0,0,1-11.23-3.11c-2-1.13-3.91-3.24-6.18-3.75-.57-.12-1-.07-1.28.46-.92,1.66,1,3.33,2.08,4.34,1.36,1.3,2.78,2.54,4.24,3.73a19.93,19.93,0,0,0,8.6,4.48,35.47,35.47,0,0,0,7.94,1,50.27,50.27,0,0,0,9.87-1c4.65-1,10.17-3.35,10.89-8.7.62-4.52.42-6.36,1.44-7,8.43-4.32,13-6.58,15.21-12.12a13.44,13.44,0,0,0,.64-7.22c-.44-2.36-1-3.71.94-5.26.6-.48,1.17-1,1.72-1.52a43.44,43.44,0,0,0,3.61-3.94c2.77-3.43,5.41-7.7,5.34-12.27C723.16,352.73,716,348.9,710.05,346.87Zm3,16.34c-1.92,2.94-5.75,5.54-8.59,7.56-3.1,2.2-6.86,3.75-10.24,5.48a67.87,67.87,0,0,1-30.28,7.68,62.48,62.48,0,0,1-11.5-1c-3.39-.62-9.08-1.34-10.59-4.85a4.14,4.14,0,0,1,0-3.13c1.07-2.84,4.08-4.89,6.5-6.48a86.15,86.15,0,0,1,13.75-7,130.6,130.6,0,0,1,13.37-5.06c14.07-4.22,21.67-3.91,29.48-2.68C717.38,356.39,713.15,363,713,363.21Z" transform="translate(-626.22 -326.81)"/></svg>